<?xml version="1.0" encoding="utf-8"?>
<!-- Generator: Adobe Illustrator 16.0.0, SVG Export Plug-In . SVG Version: 6.00 Build 0)  -->
<!DOCTYPE svg PUBLIC "-//W3C//DTD SVG 1.1//EN" "http://www.w3.org/Graphics/SVG/1.1/DTD/svg11.dtd">
<svg version="1.1" id="Layer_1" xmlns="http://www.w3.org/2000/svg" xmlns:xlink="http://www.w3.org/1999/xlink" x="0px" y="0px"
	 width="230px" height="81.176px" viewBox="0 0 230 81.176" enable-background="new 0 0 230 81.176" xml:space="preserve">
<g>
	<defs>
		<rect id="SVGID_1_" width="230" height="81.176"/>
	</defs>
	<clipPath id="SVGID_2_">
		<use xlink:href="#SVGID_1_"  overflow="visible"/>
	</clipPath>
	<path clip-path="url(#SVGID_2_)" fill="#264696" d="M66.628,47.197c0,0.505-0.124,1.051-0.373,1.636
		c-0.248,0.588-0.64,1.164-1.172,1.729c-0.533,0.566-1.214,1.025-2.042,1.375c-0.827,0.354-1.793,0.531-2.895,0.531
		c-0.835,0-1.594-0.078-2.279-0.238c-0.684-0.158-1.305-0.404-1.863-0.74c-0.559-0.333-1.072-0.775-1.54-1.322
		c-0.418-0.498-0.773-1.053-1.069-1.669c-0.294-0.616-0.517-1.272-0.664-1.971c-0.148-0.699-0.221-1.44-0.221-2.227
		c0-1.273,0.184-2.415,0.556-3.423c0.371-1.008,0.902-1.871,1.593-2.587s1.501-1.262,2.429-1.637c0.93-0.374,1.92-0.562,2.972-0.562
		c1.282,0,2.424,0.256,3.425,0.768c1,0.511,1.767,1.143,2.301,1.896c0.533,0.752,0.799,1.464,0.799,2.133
		c0,0.368-0.129,0.692-0.388,0.973c-0.261,0.282-0.574,0.421-0.94,0.421c-0.41,0-0.718-0.097-0.924-0.291
		c-0.205-0.195-0.434-0.53-0.686-1.006c-0.418-0.785-0.91-1.372-1.475-1.761c-0.565-0.389-1.262-0.583-2.09-0.583
		c-1.318,0-2.368,0.5-3.15,1.501c-0.781,1.001-1.172,2.423-1.172,4.267c0,1.233,0.173,2.257,0.52,3.074
		c0.344,0.817,0.835,1.427,1.468,1.831c0.633,0.402,1.376,0.604,2.226,0.604c0.921,0,1.701-0.229,2.339-0.684
		c0.637-0.46,1.117-1.13,1.442-2.017c0.136-0.417,0.305-0.757,0.508-1.02c0.201-0.263,0.525-0.395,0.971-0.395
		c0.381,0,0.709,0.134,0.984,0.399C66.492,46.47,66.628,46.802,66.628,47.197"/>
	<path clip-path="url(#SVGID_2_)" fill="#264696" d="M69.913,39.107c-0.411,0-0.762-0.126-1.054-0.378
		c-0.292-0.252-0.437-0.608-0.437-1.069c0-0.418,0.149-0.761,0.448-1.033c0.298-0.27,0.647-0.404,1.042-0.404
		c0.382,0,0.72,0.123,1.015,0.367c0.296,0.246,0.443,0.602,0.443,1.07c0,0.453-0.144,0.809-0.431,1.063
		C70.651,38.979,70.308,39.107,69.913,39.107 M71.371,42.153v8.522c0,0.592-0.139,1.038-0.421,1.341
		c-0.28,0.301-0.638,0.452-1.069,0.452c-0.432,0-0.783-0.155-1.054-0.464c-0.269-0.311-0.404-0.752-0.404-1.33v-8.437
		c0-0.583,0.135-1.021,0.404-1.317c0.271-0.296,0.622-0.443,1.054-0.443c0.431,0,0.789,0.147,1.069,0.443
		C71.231,41.217,71.371,41.627,71.371,42.153"/>
	<path clip-path="url(#SVGID_2_)" fill="#264696" d="M76.459,48.213v2.462c0,0.597-0.14,1.046-0.421,1.346
		c-0.28,0.298-0.637,0.447-1.069,0.447c-0.426,0-0.774-0.151-1.048-0.452c-0.273-0.304-0.41-0.749-0.41-1.341v-8.209
		c0-1.325,0.479-1.987,1.436-1.987c0.49,0,0.842,0.155,1.059,0.464c0.216,0.311,0.334,0.769,0.357,1.372
		c0.353-0.604,0.714-1.062,1.085-1.372c0.371-0.309,0.865-0.464,1.484-0.464c0.62,0,1.222,0.155,1.805,0.464
		c0.583,0.311,0.876,0.722,0.876,1.232c0,0.361-0.125,0.658-0.374,0.891c-0.248,0.234-0.516,0.352-0.805,0.352
		c-0.108,0-0.369-0.068-0.783-0.201c-0.414-0.133-0.779-0.199-1.096-0.199c-0.432,0-0.786,0.112-1.058,0.34
		c-0.274,0.227-0.487,0.563-0.637,1.009c-0.152,0.446-0.256,0.978-0.314,1.593C76.489,46.576,76.459,47.327,76.459,48.213"/>
	<path clip-path="url(#SVGID_2_)" fill="#264696" d="M89.445,50.806v-0.378c-0.353,0.447-0.723,0.821-1.112,1.123
		c-0.39,0.304-0.814,0.528-1.275,0.675c-0.461,0.147-0.987,0.221-1.578,0.221c-0.711,0-1.351-0.147-1.917-0.441
		c-0.565-0.295-1.002-0.702-1.312-1.221c-0.368-0.627-0.551-1.528-0.551-2.701v-5.845c0-0.589,0.132-1.032,0.398-1.323
		c0.267-0.292,0.62-0.438,1.059-0.438c0.446,0,0.806,0.148,1.081,0.443c0.273,0.296,0.411,0.735,0.411,1.317v4.721
		c0,0.684,0.058,1.259,0.173,1.723c0.115,0.466,0.321,0.83,0.621,1.092c0.299,0.262,0.704,0.394,1.216,0.394
		c0.497,0,0.965-0.147,1.404-0.441c0.439-0.296,0.76-0.681,0.961-1.156c0.165-0.418,0.248-1.333,0.248-2.745v-3.587
		c0-0.583,0.137-1.021,0.41-1.317c0.274-0.295,0.631-0.443,1.07-0.443c0.438,0,0.792,0.146,1.058,0.438
		c0.266,0.291,0.4,0.733,0.4,1.323v8.545c0,0.562-0.128,0.982-0.384,1.264c-0.255,0.282-0.585,0.421-0.988,0.421
		c-0.404,0-0.736-0.146-0.999-0.437C89.577,51.739,89.445,51.332,89.445,50.806"/>
	<path clip-path="url(#SVGID_2_)" fill="#264696" d="M105.11,42.64v8.565c0,0.98-0.104,1.823-0.315,2.528
		c-0.207,0.705-0.543,1.288-1.004,1.75c-0.46,0.459-1.063,0.803-1.81,1.025c-0.745,0.225-1.671,0.335-2.78,0.335
		c-1.015,0-1.923-0.142-2.722-0.426c-0.8-0.285-1.416-0.652-1.848-1.104c-0.432-0.449-0.647-0.913-0.647-1.387
		c0-0.36,0.122-0.654,0.366-0.881c0.245-0.227,0.541-0.34,0.887-0.34c0.432,0,0.81,0.19,1.134,0.571
		c0.159,0.195,0.323,0.391,0.491,0.591c0.169,0.196,0.357,0.365,0.562,0.507c0.205,0.139,0.451,0.243,0.74,0.314
		c0.288,0.066,0.619,0.102,0.994,0.102c0.764,0,1.355-0.105,1.777-0.318c0.42-0.214,0.717-0.511,0.885-0.892
		c0.17-0.382,0.27-0.791,0.297-1.227c0.029-0.436,0.052-1.135,0.065-2.1c-0.454,0.632-0.978,1.114-1.573,1.445
		c-0.593,0.332-1.301,0.498-2.123,0.498c-0.986,0-1.848-0.251-2.587-0.756c-0.738-0.504-1.305-1.21-1.701-2.118
		c-0.396-0.907-0.594-1.955-0.594-3.143c0-0.886,0.121-1.686,0.361-2.398c0.241-0.713,0.585-1.314,1.031-1.804
		c0.447-0.49,0.962-0.86,1.546-1.106c0.583-0.25,1.223-0.374,1.921-0.374c0.835,0,1.559,0.161,2.171,0.481
		c0.612,0.321,1.181,0.822,1.706,1.506v-0.399c0-0.512,0.127-0.907,0.379-1.188c0.253-0.281,0.576-0.421,0.973-0.421
		c0.568,0,0.947,0.186,1.134,0.557C105.016,41.406,105.11,41.94,105.11,42.64 M96.565,46.376c0,1.196,0.26,2.1,0.783,2.712
		c0.522,0.611,1.197,0.917,2.026,0.917c0.489,0,0.951-0.13,1.387-0.393c0.436-0.264,0.79-0.659,1.065-1.188
		c0.272-0.529,0.409-1.172,0.409-1.928c0-1.203-0.264-2.14-0.795-2.81c-0.528-0.67-1.225-1.004-2.089-1.004
		c-0.842,0-1.517,0.321-2.025,0.962C96.819,44.284,96.565,45.195,96.565,46.376"/>
	<path clip-path="url(#SVGID_2_)" fill="#264696" d="M109.648,36.244h1.458c0.368,0,0.552,0.054,0.552,0.163
		c0,0.058-0.202,0.291-0.606,0.702c-0.404,0.411-0.812,0.803-1.223,1.177c-0.409,0.375-0.693,0.602-0.852,0.681
		c-0.411,0.208-0.85,0.312-1.318,0.312c-0.31,0-0.465-0.09-0.465-0.27c0-0.122,0.094-0.335,0.281-0.638l0.487-0.908
		c0.28-0.526,0.526-0.859,0.733-1.004C108.904,36.316,109.222,36.244,109.648,36.244 M110.155,42.153v8.522
		c0,0.592-0.139,1.038-0.421,1.341c-0.28,0.301-0.637,0.452-1.069,0.452c-0.432,0-0.783-0.155-1.053-0.464
		c-0.27-0.311-0.404-0.752-0.404-1.33v-8.437c0-0.583,0.134-1.021,0.404-1.317s0.622-0.443,1.053-0.443
		c0.432,0,0.789,0.147,1.069,0.443C110.016,41.217,110.155,41.627,110.155,42.153"/>
	<path clip-path="url(#SVGID_2_)" fill="#264696" d="M119.769,50.806c-0.712,0.553-1.401,0.969-2.068,1.247
		c-0.666,0.277-1.412,0.416-2.241,0.416c-0.756,0-1.419-0.149-1.992-0.447c-0.573-0.3-1.014-0.705-1.323-1.215
		c-0.31-0.512-0.465-1.066-0.465-1.663c0-0.808,0.256-1.496,0.767-2.063c0.512-0.569,1.213-0.951,2.107-1.146
		c0.186-0.043,0.653-0.141,1.393-0.291c0.742-0.153,1.378-0.29,1.909-0.417c0.527-0.126,1.102-0.28,1.722-0.459
		c-0.036-0.778-0.193-1.349-0.47-1.712c-0.279-0.363-0.852-0.545-1.723-0.545c-0.75,0-1.312,0.105-1.691,0.313
		c-0.379,0.208-0.702,0.522-0.973,0.939c-0.268,0.418-0.46,0.694-0.573,0.826c-0.11,0.134-0.35,0.2-0.718,0.2
		c-0.331,0-0.616-0.104-0.858-0.318c-0.242-0.211-0.362-0.483-0.362-0.815c0-0.519,0.185-1.023,0.55-1.512
		c0.368-0.49,0.94-0.895,1.719-1.21c0.777-0.317,1.747-0.475,2.906-0.475c1.296,0,2.314,0.154,3.056,0.458
		c0.742,0.306,1.267,0.791,1.573,1.452c0.306,0.663,0.459,1.542,0.459,2.637c0,0.69-0.003,1.277-0.007,1.76
		c-0.003,0.483-0.009,1.02-0.016,1.609c0,0.557,0.091,1.133,0.275,1.735c0.185,0.601,0.275,0.987,0.275,1.16
		c0,0.303-0.142,0.578-0.427,0.827c-0.284,0.249-0.606,0.372-0.967,0.372c-0.303,0-0.601-0.142-0.896-0.426
		C120.413,51.758,120.102,51.346,119.769,50.806 M119.575,46.538c-0.434,0.16-1.061,0.327-1.886,0.503
		c-0.823,0.176-1.395,0.305-1.712,0.388c-0.317,0.083-0.62,0.246-0.907,0.486c-0.287,0.242-0.432,0.578-0.432,1.012
		c0,0.446,0.169,0.824,0.507,1.138c0.339,0.313,0.782,0.471,1.33,0.471c0.582,0,1.12-0.127,1.614-0.385
		c0.493-0.254,0.854-0.585,1.085-0.987c0.267-0.448,0.4-1.181,0.4-2.205V46.538z"/>
	<path clip-path="url(#SVGID_2_)" fill="#264696" d="M135.994,46.031h-2.938v4.482c0,0.641-0.151,1.126-0.453,1.459
		c-0.303,0.331-0.685,0.496-1.146,0.496c-0.482,0-0.871-0.163-1.167-0.49c-0.294-0.328-0.442-0.809-0.442-1.442V38.329
		c0-0.706,0.162-1.209,0.486-1.512c0.323-0.303,0.839-0.453,1.544-0.453h4.115c1.219,0,2.154,0.093,2.809,0.28
		c0.649,0.179,1.208,0.479,1.681,0.896c0.472,0.417,0.83,0.929,1.074,1.533c0.245,0.605,0.367,1.285,0.367,2.043
		c0,1.612-0.496,2.834-1.49,3.667C139.441,45.615,137.962,46.031,135.994,46.031 M135.218,38.772h-2.161v4.839h2.161
		c0.755,0,1.388-0.079,1.895-0.237c0.508-0.159,0.895-0.418,1.161-0.778c0.267-0.361,0.4-0.833,0.4-1.415
		c0-0.699-0.205-1.268-0.614-1.708C137.598,39.006,136.65,38.772,135.218,38.772"/>
	<path clip-path="url(#SVGID_2_)" fill="#264696" d="M150.903,47.197h-5.77c0.007,0.669,0.142,1.261,0.406,1.771
		c0.263,0.512,0.611,0.897,1.048,1.156c0.436,0.26,0.916,0.389,1.442,0.389c0.354,0,0.674-0.041,0.966-0.124
		c0.291-0.083,0.575-0.212,0.849-0.389c0.272-0.177,0.525-0.366,0.755-0.565c0.23-0.204,0.529-0.477,0.897-0.824
		c0.151-0.129,0.367-0.193,0.647-0.193c0.303,0,0.547,0.084,0.734,0.249c0.187,0.165,0.282,0.399,0.282,0.701
		c0,0.267-0.105,0.58-0.314,0.935c-0.208,0.356-0.524,0.699-0.944,1.026c-0.421,0.328-0.95,0.6-1.588,0.816
		c-0.638,0.216-1.37,0.323-2.197,0.323c-1.895,0-3.368-0.54-4.42-1.621c-1.052-1.08-1.577-2.544-1.577-4.396
		c0-0.87,0.13-1.679,0.39-2.423c0.258-0.746,0.638-1.385,1.134-1.918s1.109-0.941,1.837-1.226c0.727-0.285,1.534-0.427,2.419-0.427
		c1.152,0,2.142,0.242,2.965,0.729c0.826,0.485,1.442,1.114,1.854,1.884c0.41,0.771,0.614,1.556,0.614,2.355
		c0,0.743-0.212,1.222-0.636,1.442C152.271,47.088,151.673,47.197,150.903,47.197 M145.134,45.523h5.348
		c-0.073-1.008-0.345-1.763-0.814-2.263c-0.473-0.5-1.094-0.751-1.863-0.751c-0.735,0-1.339,0.254-1.81,0.762
		C145.522,43.778,145.235,44.529,145.134,45.523"/>
	<path clip-path="url(#SVGID_2_)" fill="#264696" d="M163.012,50.784v-0.292c-0.395,0.453-0.787,0.822-1.17,1.108
		c-0.387,0.284-0.805,0.499-1.254,0.647c-0.451,0.146-0.941,0.221-1.475,0.221c-0.705,0-1.36-0.149-1.961-0.447
		c-0.603-0.3-1.121-0.727-1.56-1.281c-0.441-0.556-0.773-1.206-1-1.957c-0.227-0.748-0.341-1.558-0.341-2.429
		c0-1.842,0.449-3.281,1.351-4.31c0.9-1.031,2.085-1.545,3.553-1.545c0.85,0,1.568,0.146,2.15,0.437
		c0.583,0.292,1.152,0.74,1.706,1.345V37.93c0-0.605,0.122-1.062,0.362-1.373c0.242-0.309,0.585-0.465,1.033-0.465
		c0.445,0,0.79,0.144,1.03,0.427c0.24,0.284,0.362,0.705,0.362,1.259v13.005c0,0.562-0.131,0.981-0.389,1.264
		c-0.259,0.28-0.595,0.421-1.004,0.421c-0.404,0-0.737-0.146-1-0.437C163.145,51.739,163.012,51.323,163.012,50.784 M157.212,46.451
		c0,0.801,0.125,1.48,0.372,2.041c0.249,0.562,0.591,0.986,1.021,1.271c0.432,0.285,0.905,0.427,1.416,0.427
		c0.519,0,0.992-0.135,1.421-0.404c0.429-0.271,0.771-0.685,1.025-1.244c0.256-0.557,0.385-1.253,0.385-2.09
		c0-0.784-0.129-1.459-0.385-2.025c-0.254-0.565-0.601-0.996-1.036-1.296c-0.437-0.297-0.914-0.448-1.431-0.448
		c-0.54,0-1.024,0.152-1.449,0.459c-0.425,0.306-0.754,0.746-0.987,1.319C157.328,45.033,157.212,45.695,157.212,46.451"/>
	<path clip-path="url(#SVGID_2_)" fill="#264696" d="M169.366,39.107c-0.411,0-0.763-0.126-1.054-0.378
		c-0.291-0.252-0.438-0.608-0.438-1.069c0-0.418,0.148-0.761,0.45-1.033c0.297-0.27,0.644-0.404,1.041-0.404
		c0.381,0,0.719,0.123,1.015,0.367c0.296,0.246,0.442,0.602,0.442,1.07c0,0.453-0.143,0.809-0.432,1.063
		C170.104,38.979,169.762,39.107,169.366,39.107 M170.823,42.153v8.522c0,0.592-0.139,1.038-0.421,1.341
		c-0.28,0.301-0.638,0.452-1.069,0.452s-0.783-0.155-1.054-0.464c-0.27-0.311-0.404-0.752-0.404-1.33v-8.437
		c0-0.583,0.135-1.021,0.404-1.317c0.271-0.296,0.622-0.443,1.054-0.443s0.789,0.147,1.069,0.443
		C170.685,41.217,170.823,41.627,170.823,42.153"/>
	<path clip-path="url(#SVGID_2_)" fill="#264696" d="M180.439,50.806c-0.713,0.553-1.404,0.969-2.069,1.247
		c-0.667,0.277-1.412,0.416-2.242,0.416c-0.756,0-1.42-0.149-1.992-0.447c-0.573-0.3-1.014-0.705-1.323-1.215
		c-0.311-0.512-0.466-1.066-0.466-1.663c0-0.808,0.257-1.496,0.769-2.063c0.51-0.569,1.212-0.953,2.105-1.146
		c0.188-0.043,0.65-0.141,1.395-0.291c0.741-0.153,1.377-0.29,1.906-0.417c0.528-0.126,1.104-0.28,1.723-0.459
		c-0.035-0.778-0.191-1.349-0.471-1.712c-0.276-0.363-0.852-0.545-1.722-0.545c-0.749,0-1.313,0.105-1.691,0.313
		c-0.377,0.208-0.703,0.522-0.971,0.939c-0.271,0.418-0.462,0.694-0.573,0.826c-0.111,0.134-0.352,0.2-0.72,0.2
		c-0.33,0-0.616-0.104-0.858-0.318c-0.24-0.211-0.361-0.483-0.361-0.815c0-0.519,0.185-1.023,0.552-1.512
		c0.367-0.49,0.938-0.893,1.717-1.21c0.778-0.317,1.746-0.475,2.906-0.475c1.296,0,2.314,0.153,3.058,0.458
		c0.74,0.306,1.265,0.791,1.57,1.452c0.307,0.663,0.46,1.542,0.46,2.636c0,0.691-0.002,1.279-0.005,1.761
		c-0.006,0.483-0.009,1.02-0.016,1.609c0,0.557,0.09,1.133,0.273,1.735c0.185,0.601,0.276,0.987,0.276,1.16
		c0,0.303-0.143,0.578-0.427,0.827c-0.285,0.249-0.607,0.372-0.968,0.372c-0.302,0-0.601-0.142-0.896-0.426
		C181.083,51.758,180.77,51.346,180.439,50.806 M180.244,46.538c-0.432,0.16-1.061,0.327-1.885,0.503
		c-0.825,0.176-1.396,0.305-1.711,0.388c-0.319,0.083-0.62,0.246-0.909,0.486c-0.287,0.242-0.432,0.578-0.432,1.012
		c0,0.446,0.169,0.825,0.507,1.138c0.339,0.313,0.781,0.471,1.33,0.471c0.581,0,1.119-0.127,1.614-0.385
		c0.494-0.254,0.854-0.585,1.086-0.987c0.267-0.448,0.399-1.181,0.399-2.205V46.538z M178.473,36.244h1.458
		c0.367,0,0.552,0.054,0.552,0.162c0,0.058-0.202,0.292-0.605,0.703c-0.402,0.411-0.811,0.802-1.221,1.177
		c-0.411,0.375-0.695,0.602-0.854,0.682c-0.411,0.208-0.85,0.312-1.318,0.312c-0.309,0-0.465-0.09-0.465-0.27
		c0-0.122,0.094-0.334,0.28-0.638l0.487-0.908c0.28-0.525,0.526-0.86,0.735-1.004S178.048,36.244,178.473,36.244"/>
	<path clip-path="url(#SVGID_2_)" fill="#264696" d="M185.408,40.738h0.324v-1.771c0-0.476,0.013-0.849,0.038-1.119
		c0.024-0.27,0.096-0.502,0.209-0.696c0.115-0.202,0.282-0.366,0.498-0.491c0.216-0.126,0.458-0.189,0.725-0.189
		c0.374,0,0.712,0.141,1.016,0.421c0.2,0.188,0.329,0.416,0.383,0.686c0.054,0.27,0.082,0.653,0.082,1.15v2.01h1.079
		c0.418,0,0.736,0.099,0.956,0.297s0.329,0.453,0.329,0.762c0,0.396-0.156,0.673-0.47,0.832c-0.312,0.158-0.762,0.237-1.345,0.237
		h-0.55v5.422c0,0.461,0.014,0.816,0.047,1.064c0.033,0.249,0.118,0.451,0.259,0.606c0.142,0.155,0.371,0.231,0.687,0.231
		c0.173,0,0.407-0.031,0.702-0.092c0.296-0.061,0.525-0.092,0.692-0.092c0.237,0,0.451,0.096,0.643,0.288
		c0.19,0.19,0.286,0.426,0.286,0.707c0,0.476-0.26,0.84-0.778,1.092c-0.518,0.252-1.265,0.378-2.234,0.378
		c-0.923,0-1.621-0.155-2.097-0.464c-0.476-0.311-0.787-0.737-0.935-1.286c-0.148-0.548-0.222-1.278-0.222-2.193v-5.66h-0.389
		c-0.426,0-0.75-0.101-0.971-0.303c-0.226-0.202-0.337-0.457-0.337-0.766s0.117-0.563,0.353-0.762
		C184.621,40.837,184.963,40.738,185.408,40.738"/>
	<path clip-path="url(#SVGID_2_)" fill="#264696" d="M195.12,48.213v2.462c0,0.597-0.142,1.046-0.422,1.346
		c-0.28,0.298-0.637,0.447-1.069,0.447c-0.425,0-0.774-0.151-1.048-0.452c-0.273-0.304-0.409-0.749-0.409-1.341v-8.209
		c0-1.325,0.479-1.987,1.437-1.987c0.489,0,0.841,0.155,1.059,0.464c0.216,0.311,0.335,0.769,0.355,1.372
		c0.354-0.604,0.716-1.062,1.087-1.372c0.37-0.309,0.865-0.464,1.485-0.464c0.619,0,1.22,0.155,1.804,0.464
		c0.583,0.311,0.874,0.722,0.874,1.232c0,0.361-0.124,0.658-0.373,0.891c-0.247,0.234-0.517,0.352-0.804,0.352
		c-0.108,0-0.368-0.068-0.782-0.201s-0.78-0.199-1.097-0.199c-0.433,0-0.786,0.112-1.06,0.34c-0.272,0.227-0.487,0.563-0.637,1.009
		c-0.151,0.446-0.256,0.978-0.313,1.593C195.149,46.576,195.12,47.327,195.12,48.213"/>
	<path clip-path="url(#SVGID_2_)" fill="#264696" d="M202.489,39.107c-0.411,0-0.763-0.126-1.054-0.378
		c-0.293-0.252-0.438-0.608-0.438-1.069c0-0.418,0.148-0.761,0.448-1.033c0.299-0.27,0.646-0.404,1.043-0.404
		c0.381,0,0.719,0.123,1.015,0.367c0.296,0.246,0.442,0.602,0.442,1.07c0,0.453-0.143,0.809-0.432,1.063
		C203.226,38.979,202.885,39.107,202.489,39.107 M203.946,42.153v8.522c0,0.592-0.141,1.038-0.421,1.341
		c-0.28,0.301-0.638,0.452-1.069,0.452s-0.782-0.155-1.054-0.464c-0.27-0.311-0.404-0.752-0.404-1.33v-8.437
		c0-0.583,0.135-1.021,0.404-1.317c0.271-0.296,0.622-0.443,1.054-0.443s0.789,0.147,1.069,0.443S203.946,41.627,203.946,42.153"/>
	<path clip-path="url(#SVGID_2_)" fill="#264696" d="M216.685,48.817c0,0.368-0.112,0.759-0.331,1.179
		c-0.22,0.417-0.554,0.814-1.005,1.193c-0.449,0.378-1.017,0.683-1.701,0.912s-1.454,0.345-2.311,0.345
		c-1.821,0-3.246-0.529-4.269-1.592c-1.021-1.063-1.534-2.487-1.534-4.273c0-1.208,0.235-2.278,0.704-3.208
		c0.468-0.929,1.146-1.648,2.03-2.156c0.886-0.508,1.945-0.761,3.174-0.761c0.765,0,1.467,0.112,2.104,0.334
		c0.636,0.223,1.176,0.512,1.62,0.865c0.443,0.352,0.781,0.729,1.015,1.129c0.235,0.399,0.351,0.772,0.351,1.118
		c0,0.353-0.131,0.651-0.394,0.896c-0.264,0.246-0.582,0.368-0.956,0.368c-0.246,0-0.447-0.063-0.609-0.188
		c-0.162-0.126-0.345-0.329-0.547-0.611c-0.359-0.546-0.736-0.958-1.127-1.231c-0.394-0.273-0.892-0.411-1.497-0.411
		c-0.871,0-1.574,0.341-2.107,1.021c-0.531,0.68-0.799,1.611-0.799,2.792c0,0.555,0.069,1.064,0.207,1.529
		c0.136,0.465,0.334,0.86,0.592,1.188c0.26,0.328,0.573,0.576,0.94,0.745c0.367,0.17,0.77,0.255,1.208,0.255
		c0.593,0,1.098-0.138,1.521-0.411c0.42-0.273,0.794-0.691,1.116-1.254c0.182-0.331,0.374-0.59,0.583-0.778
		c0.209-0.186,0.465-0.28,0.769-0.28c0.36,0,0.658,0.137,0.896,0.41C216.564,48.218,216.685,48.508,216.685,48.817"/>
	<path clip-path="url(#SVGID_2_)" fill="#264696" d="M225.822,50.806c-0.714,0.553-1.401,0.969-2.068,1.247
		c-0.665,0.277-1.412,0.416-2.241,0.416c-0.758,0-1.421-0.149-1.992-0.447c-0.574-0.3-1.015-0.705-1.325-1.215
		c-0.308-0.512-0.465-1.066-0.465-1.663c0-0.808,0.256-1.496,0.769-2.063c0.512-0.569,1.213-0.951,2.106-1.146
		c0.188-0.043,0.651-0.141,1.395-0.291c0.74-0.153,1.376-0.29,1.905-0.417c0.529-0.126,1.104-0.28,1.723-0.459
		c-0.037-0.778-0.192-1.349-0.469-1.712c-0.278-0.363-0.852-0.545-1.724-0.545c-0.749,0-1.313,0.105-1.691,0.313
		c-0.378,0.208-0.701,0.522-0.972,0.939c-0.27,0.418-0.461,0.694-0.571,0.826c-0.112,0.134-0.352,0.2-0.719,0.2
		c-0.333,0-0.618-0.104-0.858-0.318c-0.242-0.211-0.362-0.483-0.362-0.815c0-0.519,0.183-1.023,0.552-1.512
		c0.366-0.49,0.938-0.895,1.716-1.21c0.778-0.317,1.746-0.475,2.906-0.475c1.295,0,2.315,0.154,3.058,0.458
		c0.741,0.306,1.266,0.791,1.57,1.452c0.307,0.663,0.46,1.542,0.46,2.637c0,0.69-0.002,1.277-0.006,1.76
		c-0.005,0.483-0.008,1.02-0.016,1.609c0,0.557,0.091,1.133,0.273,1.735c0.185,0.601,0.277,0.987,0.277,1.16
		c0,0.303-0.143,0.578-0.427,0.827s-0.607,0.372-0.967,0.372c-0.303,0-0.603-0.142-0.896-0.426
		C226.467,51.758,226.153,51.346,225.822,50.806 M225.628,46.538c-0.433,0.16-1.061,0.327-1.885,0.503
		c-0.823,0.176-1.395,0.305-1.712,0.388c-0.316,0.083-0.619,0.246-0.907,0.486c-0.289,0.242-0.434,0.578-0.434,1.012
		c0,0.446,0.171,0.824,0.509,1.138c0.338,0.313,0.782,0.471,1.329,0.471c0.583,0,1.121-0.127,1.615-0.385
		c0.493-0.254,0.855-0.585,1.085-0.987c0.267-0.448,0.399-1.181,0.399-2.205V46.538z"/>
	<path clip-path="url(#SVGID_2_)" fill="#264696" d="M53.266,74.845V62.368c0-0.647,0.147-1.135,0.442-1.457
		c0.295-0.326,0.677-0.487,1.146-0.487c0.482,0,0.873,0.161,1.171,0.481c0.3,0.32,0.449,0.809,0.449,1.463v12.477
		c0,0.656-0.149,1.145-0.449,1.47c-0.299,0.324-0.689,0.486-1.171,0.486c-0.462,0-0.841-0.163-1.14-0.492
		C53.416,75.981,53.266,75.493,53.266,74.845"/>
	<path clip-path="url(#SVGID_2_)" fill="#264696" d="M61.649,66.442v0.355c0.518-0.685,1.086-1.188,1.701-1.507
		c0.616-0.32,1.324-0.48,2.124-0.48c0.778,0,1.472,0.169,2.084,0.508c0.612,0.338,1.068,0.816,1.372,1.436
		c0.194,0.361,0.32,0.749,0.378,1.167s0.087,0.951,0.087,1.6v5.487c0,0.591-0.136,1.036-0.405,1.339
		c-0.269,0.303-0.622,0.454-1.053,0.454c-0.439,0-0.797-0.155-1.07-0.466c-0.273-0.308-0.411-0.752-0.411-1.327v-4.915
		c0-0.974-0.135-1.717-0.404-2.23c-0.271-0.516-0.809-0.773-1.614-0.773c-0.527,0-1.006,0.157-1.438,0.471
		c-0.432,0.312-0.75,0.743-0.95,1.291c-0.145,0.438-0.216,1.26-0.216,2.462v3.695c0,0.598-0.139,1.045-0.416,1.344
		c-0.277,0.301-0.636,0.449-1.075,0.449c-0.426,0-0.775-0.155-1.049-0.466c-0.274-0.308-0.41-0.752-0.41-1.327v-8.523
		c0-0.562,0.123-0.98,0.368-1.258c0.245-0.278,0.579-0.416,1.004-0.416c0.259,0,0.494,0.061,0.702,0.184
		c0.209,0.121,0.377,0.306,0.503,0.55C61.586,65.79,61.649,66.088,61.649,66.442"/>
	<path clip-path="url(#SVGID_2_)" fill="#264696" d="M71.611,65.07h0.324v-1.773c0-0.475,0.011-0.847,0.037-1.117
		c0.025-0.271,0.095-0.503,0.21-0.696c0.115-0.202,0.281-0.367,0.497-0.491c0.216-0.127,0.458-0.19,0.725-0.19
		c0.374,0,0.711,0.142,1.014,0.423c0.202,0.186,0.33,0.414,0.384,0.685c0.054,0.271,0.081,0.655,0.081,1.151v2.01h1.081
		c0.417,0,0.736,0.098,0.956,0.297c0.219,0.197,0.329,0.451,0.329,0.761c0,0.396-0.155,0.674-0.469,0.831
		c-0.314,0.159-0.761,0.238-1.345,0.238h-0.551v5.422c0,0.462,0.016,0.816,0.049,1.064c0.033,0.249,0.119,0.45,0.259,0.605
		c0.141,0.155,0.37,0.232,0.686,0.232c0.173,0,0.407-0.03,0.703-0.093c0.295-0.061,0.525-0.091,0.691-0.091
		c0.237,0,0.452,0.096,0.643,0.285c0.189,0.192,0.285,0.428,0.285,0.708c0,0.476-0.259,0.839-0.777,1.091
		c-0.52,0.252-1.264,0.379-2.237,0.379c-0.922,0-1.62-0.155-2.096-0.466c-0.475-0.308-0.786-0.736-0.933-1.284
		c-0.149-0.548-0.222-1.278-0.222-2.193v-5.66h-0.389c-0.425,0-0.75-0.101-0.973-0.304c-0.223-0.2-0.334-0.457-0.334-0.766
		c0-0.31,0.116-0.563,0.351-0.761C70.824,65.168,71.163,65.07,71.611,65.07"/>
	<path clip-path="url(#SVGID_2_)" fill="#264696" d="M86.627,71.528h-5.77c0.007,0.671,0.142,1.261,0.405,1.772
		c0.263,0.511,0.612,0.896,1.048,1.155c0.436,0.26,0.917,0.389,1.443,0.389c0.353,0,0.674-0.041,0.966-0.124
		c0.291-0.081,0.575-0.211,0.848-0.389c0.274-0.177,0.526-0.365,0.756-0.566c0.23-0.202,0.529-0.477,0.897-0.82
		c0.15-0.131,0.367-0.195,0.647-0.195c0.302,0,0.547,0.083,0.734,0.248c0.188,0.165,0.282,0.399,0.282,0.702
		c0,0.267-0.105,0.578-0.314,0.936c-0.208,0.355-0.522,0.697-0.945,1.024c-0.421,0.328-0.95,0.601-1.587,0.816
		s-1.37,0.324-2.198,0.324c-1.894,0-3.366-0.54-4.418-1.622c-1.052-1.08-1.578-2.545-1.578-4.396c0-0.871,0.131-1.681,0.39-2.426
		c0.259-0.744,0.637-1.384,1.134-1.915c0.498-0.534,1.11-0.942,1.837-1.228c0.727-0.283,1.534-0.426,2.418-0.426
		c1.153,0,2.142,0.242,2.966,0.729c0.825,0.486,1.443,1.114,1.854,1.886c0.41,0.771,0.615,1.556,0.615,2.354
		c0,0.741-0.212,1.221-0.637,1.441C87.994,71.42,87.396,71.528,86.627,71.528 M80.857,69.854h5.347
		c-0.072-1.009-0.344-1.763-0.815-2.263c-0.472-0.501-1.093-0.75-1.864-0.75c-0.734,0-1.337,0.252-1.809,0.761
		C81.244,68.11,80.958,68.861,80.857,69.854"/>
	<path clip-path="url(#SVGID_2_)" fill="#264696" d="M101.209,66.971v8.565c0,0.981-0.104,1.821-0.313,2.528
		c-0.208,0.705-0.544,1.288-1.005,1.75c-0.46,0.461-1.063,0.804-1.809,1.026c-0.745,0.223-1.672,0.335-2.781,0.335
		c-1.015,0-1.922-0.143-2.722-0.428c-0.8-0.284-1.417-0.65-1.849-1.103c-0.432-0.449-0.647-0.912-0.647-1.387
		c0-0.36,0.123-0.653,0.368-0.88c0.244-0.227,0.54-0.341,0.884-0.341c0.433,0,0.811,0.19,1.135,0.574
		c0.157,0.192,0.322,0.389,0.492,0.587c0.168,0.197,0.356,0.367,0.561,0.508c0.206,0.141,0.451,0.246,0.74,0.312
		c0.288,0.069,0.62,0.104,0.994,0.104c0.764,0,1.356-0.105,1.778-0.319c0.421-0.212,0.716-0.51,0.886-0.891
		c0.169-0.382,0.268-0.791,0.297-1.227c0.028-0.435,0.05-1.135,0.064-2.101c-0.453,0.635-0.977,1.115-1.572,1.446
		c-0.594,0.332-1.3,0.498-2.123,0.498c-0.986,0-1.848-0.252-2.586-0.755c-0.739-0.505-1.305-1.21-1.702-2.118
		c-0.396-0.907-0.593-1.956-0.593-3.144c0-0.886,0.121-1.687,0.361-2.397c0.241-0.713,0.585-1.314,1.032-1.805
		c0.446-0.49,0.961-0.857,1.545-1.107c0.583-0.248,1.225-0.373,1.923-0.373c0.834,0,1.558,0.16,2.171,0.481
		c0.611,0.32,1.181,0.822,1.706,1.508v-0.4c0-0.512,0.126-0.907,0.379-1.188c0.252-0.281,0.575-0.422,0.972-0.422
		c0.569,0,0.946,0.186,1.135,0.557C101.115,65.737,101.209,66.272,101.209,66.971 M92.665,70.708c0,1.195,0.261,2.1,0.783,2.711
		c0.522,0.612,1.198,0.919,2.026,0.919c0.489,0,0.952-0.132,1.387-0.395c0.436-0.262,0.792-0.658,1.065-1.189
		c0.273-0.528,0.41-1.172,0.41-1.927c0-1.203-0.265-2.14-0.794-2.809c-0.528-0.67-1.225-1.006-2.089-1.006
		c-0.843,0-1.519,0.321-2.026,0.963C92.918,68.616,92.665,69.527,92.665,70.708"/>
	<path clip-path="url(#SVGID_2_)" fill="#264696" d="M105.942,72.544v2.464c0,0.598-0.141,1.045-0.423,1.344
		c-0.28,0.301-0.636,0.449-1.067,0.449c-0.427,0-0.775-0.151-1.049-0.454c-0.274-0.303-0.41-0.748-0.41-1.339v-8.21
		c0-1.325,0.479-1.987,1.436-1.987c0.489,0,0.843,0.155,1.059,0.464c0.216,0.31,0.336,0.768,0.357,1.372
		c0.354-0.604,0.714-1.062,1.086-1.372c0.369-0.309,0.864-0.464,1.483-0.464c0.62,0,1.221,0.155,1.804,0.464
		c0.583,0.31,0.876,0.72,0.876,1.231c0,0.36-0.125,0.657-0.373,0.891c-0.249,0.234-0.518,0.353-0.807,0.353
		c-0.108,0-0.367-0.067-0.783-0.201c-0.413-0.133-0.778-0.199-1.096-0.199c-0.432,0-0.785,0.114-1.059,0.34
		c-0.273,0.227-0.486,0.563-0.637,1.01c-0.15,0.447-0.256,0.979-0.313,1.594C105.97,70.908,105.942,71.659,105.942,72.544"/>
	<path clip-path="url(#SVGID_2_)" fill="#264696" d="M118.722,75.137c-0.714,0.555-1.403,0.972-2.068,1.247
		c-0.667,0.278-1.412,0.417-2.241,0.417c-0.757,0-1.421-0.148-1.994-0.449c-0.573-0.299-1.013-0.704-1.323-1.215
		s-0.465-1.066-0.465-1.662c0-0.809,0.256-1.495,0.768-2.064c0.51-0.569,1.212-0.951,2.107-1.145
		c0.187-0.043,0.651-0.143,1.393-0.292c0.742-0.151,1.377-0.289,1.907-0.416c0.529-0.126,1.104-0.279,1.723-0.46
		c-0.035-0.777-0.192-1.348-0.471-1.711c-0.276-0.363-0.852-0.545-1.722-0.545c-0.749,0-1.313,0.104-1.691,0.312
		c-0.378,0.209-0.702,0.522-0.972,0.941c-0.27,0.416-0.461,0.692-0.573,0.825c-0.111,0.134-0.352,0.199-0.717,0.199
		c-0.333,0-0.62-0.105-0.86-0.317c-0.24-0.213-0.362-0.483-0.362-0.815c0-0.519,0.185-1.021,0.552-1.512
		c0.368-0.491,0.938-0.895,1.717-1.212c0.777-0.315,1.745-0.474,2.907-0.474c1.295,0,2.313,0.152,3.058,0.459
		c0.74,0.305,1.264,0.791,1.57,1.452c0.307,0.662,0.46,1.541,0.46,2.636c0,0.691-0.002,1.279-0.007,1.762
		c-0.004,0.482-0.007,1.018-0.016,1.608c0,0.555,0.092,1.133,0.274,1.734c0.185,0.602,0.277,0.988,0.277,1.162
		c0,0.302-0.143,0.576-0.427,0.825c-0.285,0.248-0.607,0.373-0.967,0.373c-0.303,0-0.602-0.143-0.896-0.428
		C119.366,76.089,119.053,75.677,118.722,75.137 M118.527,70.869c-0.433,0.159-1.061,0.326-1.885,0.504
		c-0.825,0.177-1.395,0.305-1.713,0.389c-0.317,0.083-0.618,0.244-0.907,0.485c-0.287,0.241-0.432,0.578-0.432,1.011
		c0,0.446,0.169,0.825,0.508,1.14c0.338,0.312,0.78,0.469,1.329,0.469c0.583,0,1.122-0.127,1.615-0.384
		c0.492-0.253,0.854-0.583,1.086-0.988c0.267-0.445,0.399-1.181,0.399-2.202V70.869z"/>
	<path clip-path="url(#SVGID_2_)" fill="#264696" d="M123.529,75.008V62.217c0-0.591,0.131-1.037,0.394-1.338
		c0.264-0.303,0.617-0.455,1.064-0.455c0.445,0,0.806,0.149,1.081,0.449c0.273,0.299,0.411,0.746,0.411,1.344v12.791
		c0,0.598-0.14,1.045-0.416,1.344c-0.278,0.301-0.638,0.449-1.076,0.449c-0.432,0-0.782-0.155-1.052-0.466
		C123.664,76.027,123.529,75.582,123.529,75.008"/>
	<rect clip-path="url(#SVGID_2_)" fill="#FFC118" width="48.084" height="79.75"/>
	<path clip-path="url(#SVGID_2_)" fill="#FFFFFF" d="M37.127,46.032c0.001-1.252,0.322-2.687,0.618-3.917
		c1.101-4.563,2.277-9.19,3.374-13.755c0.386-1.605,0.568-3.438-1.363-4.117c-2.042-0.718-2.733,1.031-3.456,2.451
		c-0.507,1.001-0.953,2.023-1.683,3.593c-0.29-1.055-0.44-1.417-0.482-1.785c-0.468-4.028-0.904-8.063-1.384-12.091
		c-0.208-1.734-0.246-3.86-2.672-3.782c-2.413,0.075-2.289,2.212-2.461,3.942c-0.185,1.864-0.353,3.729-0.529,5.594
		c-0.22,0.027-0.44,0.055-0.661,0.083c-0.589-2.823-1.188-5.646-1.767-8.472c-0.324-1.587-1.269-2.943-2.843-2.491
		c-0.941,0.27-1.997,1.828-2.125,2.91c-0.273,2.346,0.03,4.757,0.07,7.142c0.011,0.701-0.073,1.401-0.114,2.102
		c-0.214,0.017-0.427,0.034-0.641,0.05c-0.646-2.108-1.11-4.299-2.021-6.286c-0.393-0.854-1.783-1.845-2.593-1.743
		c-0.763,0.094-1.771,1.466-1.935,2.409c-0.271,1.526,0.029,3.162,0.141,4.749c0.102,1.471,0.216,2.939,0.334,4.41
		c-0.462-0.501-0.924-1.003-1.39-1.503c-0.89-0.951-1.762-2.296-3.421-1.13c-1.667,1.17-0.742,2.464-0.104,3.611
		c1.276,2.292,4.149,8.405,5.87,11.744c0.1,1.747,0.18,3.495,0.222,5.243c0.191,7.789-0.4,15.97-0.313,23.764
		c0.039,3.545,0.149,6.891,0.285,10.996h23.049C37.105,67.436,37.099,57.163,37.127,46.032"/>
	<path clip-path="url(#SVGID_2_)" fill="#264696" d="M27.366,28.557h-0.242c-0.774,0-1.521,0.682-1.482,1.483
		c0.035,0.803,0.651,1.485,1.482,1.485h0.242c0.777,0,1.52-0.684,1.484-1.485C28.814,29.235,28.199,28.557,27.366,28.557"/>
	<path clip-path="url(#SVGID_2_)" fill="#264696" d="M19.334,30.535h-0.242c-0.775,0-1.521,0.684-1.483,1.484
		c0.035,0.803,0.652,1.484,1.483,1.484h0.242c0.778,0,1.52-0.683,1.484-1.484C20.782,31.216,20.167,30.535,19.334,30.535"/>
	<path clip-path="url(#SVGID_2_)" fill="#F07AA9" d="M19.271,37.76c0.414,1.955,1.136,3.831,2.198,5.537
		c0.857,1.373,2.098,2.754,3.875,2.101c1.727-0.632,2.781-2.568,3.356-4.2c0.742-2.103,0.862-4.376,0.964-6.583
		c0.011-0.261-0.265-0.45-0.504-0.385c0,0-9.475,2.565-9.568,2.603C19.047,37.057,19.242,37.651,19.271,37.76"/>
	<path clip-path="url(#SVGID_2_)" fill="#FFFFFF" d="M25.227,44.792c1.157-0.423,1.878-1.684,2.29-2.791
		c-2.115-0.661-2.803,1.431-2.803,1.431c-0.696-0.922-1.846-0.548-2.324-0.34c0.046,0.077,0.084,0.156,0.132,0.233
		C23.119,44.284,23.985,45.249,25.227,44.792"/>
	<rect x="134.286" y="56.881" clip-path="url(#SVGID_2_)" fill="#EF6696" width="2.345" height="24.042"/>
	<path clip-path="url(#SVGID_2_)" fill="#EF6696" d="M147.004,73.948l-0.001-0.199c-0.267,0.311-0.528,0.563-0.787,0.758
		c-0.262,0.196-0.544,0.345-0.847,0.446c-0.305,0.104-0.638,0.156-1,0.16c-0.479,0.002-0.921-0.097-1.332-0.294
		c-0.409-0.2-0.764-0.486-1.065-0.86c-0.3-0.372-0.531-0.813-0.689-1.32c-0.156-0.506-0.238-1.055-0.242-1.646
		c-0.012-1.25,0.286-2.226,0.892-2.929c0.604-0.705,1.405-1.06,2.401-1.068c0.576-0.006,1.064,0.091,1.459,0.285
		c0.399,0.194,0.785,0.495,1.167,0.902l-0.024-2.952c-0.004-0.409,0.076-0.721,0.238-0.933c0.162-0.211,0.394-0.317,0.697-0.319
		c0.303-0.003,0.536,0.091,0.701,0.282s0.249,0.476,0.253,0.853l0.071,8.819c0.003,0.382-0.084,0.667-0.256,0.859
		c-0.175,0.191-0.4,0.289-0.682,0.291c-0.272,0.002-0.499-0.095-0.679-0.291C147.1,74.595,147.008,74.314,147.004,73.948
		 M143.048,71.042c0.004,0.542,0.093,1.004,0.263,1.382c0.173,0.382,0.406,0.666,0.7,0.855c0.295,0.191,0.615,0.284,0.961,0.283
		c0.353-0.004,0.673-0.098,0.962-0.284c0.289-0.186,0.519-0.468,0.689-0.848c0.171-0.379,0.252-0.852,0.247-1.42
		c-0.004-0.532-0.094-0.989-0.27-1.371s-0.415-0.674-0.711-0.873c-0.296-0.2-0.621-0.299-0.974-0.297
		c-0.365,0.004-0.692,0.11-0.979,0.319c-0.287,0.21-0.508,0.511-0.663,0.899C143.117,70.077,143.043,70.529,143.048,71.042"/>
	<path clip-path="url(#SVGID_2_)" fill="#EF6696" d="M155.864,71.443l-3.913,0.033c0.011,0.453,0.104,0.853,0.286,1.197
		c0.181,0.346,0.419,0.605,0.717,0.779c0.296,0.173,0.624,0.259,0.98,0.255c0.238,0,0.456-0.032,0.654-0.089
		c0.197-0.057,0.389-0.146,0.573-0.268c0.185-0.122,0.354-0.252,0.509-0.39c0.156-0.137,0.356-0.325,0.604-0.562
		c0.103-0.089,0.247-0.134,0.438-0.137c0.205-0.001,0.371,0.055,0.5,0.166c0.127,0.112,0.191,0.269,0.193,0.475
		c0.001,0.18-0.066,0.394-0.208,0.635c-0.139,0.244-0.352,0.478-0.635,0.702c-0.282,0.225-0.642,0.411-1.071,0.56
		c-0.432,0.151-0.929,0.229-1.489,0.232c-1.285,0.013-2.286-0.348-3.005-1.074c-0.72-0.726-1.085-1.718-1.096-2.973
		c-0.003-0.591,0.08-1.14,0.253-1.646c0.17-0.507,0.423-0.942,0.757-1.308c0.335-0.362,0.747-0.645,1.24-0.842
		c0.491-0.196,1.038-0.298,1.639-0.3c0.781-0.007,1.452,0.151,2.015,0.476c0.562,0.327,0.983,0.749,1.266,1.269
		c0.282,0.521,0.425,1.051,0.431,1.595c0.005,0.501-0.136,0.828-0.424,0.98C156.79,71.363,156.388,71.439,155.864,71.443
		 M151.944,70.341l3.625-0.03c-0.056-0.683-0.243-1.192-0.563-1.529c-0.324-0.338-0.747-0.502-1.27-0.499
		c-0.498,0.004-0.905,0.18-1.223,0.525C152.195,69.156,152.005,69.666,151.944,70.341"/>
	<path clip-path="url(#SVGID_2_)" fill="#EF6696" d="M170.54,73.385c0.318,0.211,0.667,0.418,1.044,0.617
		c0.378,0.2,0.629,0.358,0.753,0.477c0.123,0.12,0.185,0.289,0.188,0.508c0,0.158-0.071,0.314-0.214,0.472
		c-0.141,0.157-0.315,0.236-0.522,0.239c-0.164,0.001-0.365-0.053-0.604-0.156c-0.238-0.106-0.517-0.26-0.837-0.463
		c-0.322-0.202-0.674-0.438-1.059-0.71c-0.704,0.367-1.573,0.555-2.604,0.565c-0.834,0.005-1.585-0.122-2.248-0.383
		s-1.223-0.64-1.677-1.137c-0.453-0.497-0.796-1.089-1.027-1.776c-0.233-0.686-0.354-1.435-0.36-2.246
		c-0.006-0.824,0.105-1.582,0.338-2.272c0.231-0.691,0.569-1.28,1.015-1.768c0.444-0.487,0.989-0.86,1.632-1.122
		c0.645-0.262,1.374-0.396,2.195-0.403c1.113-0.009,2.07,0.21,2.873,0.655c0.802,0.444,1.411,1.083,1.829,1.912
		c0.416,0.829,0.63,1.806,0.639,2.929C171.905,71.026,171.456,72.38,170.54,73.385 M168.824,72.21c0.3-0.349,0.52-0.76,0.66-1.235
		c0.14-0.474,0.207-1.024,0.202-1.65c-0.005-0.785-0.14-1.465-0.397-2.039c-0.259-0.574-0.625-1.009-1.099-1.3
		s-1.015-0.435-1.626-0.429c-0.436,0.003-0.836,0.088-1.203,0.254c-0.368,0.167-0.682,0.407-0.946,0.723
		c-0.265,0.313-0.47,0.715-0.619,1.202c-0.15,0.487-0.224,1.034-0.218,1.639c0.01,1.236,0.305,2.185,0.886,2.847
		c0.582,0.661,1.313,0.989,2.191,0.981c0.361-0.002,0.732-0.08,1.112-0.235c-0.229-0.168-0.519-0.337-0.865-0.507
		c-0.345-0.166-0.582-0.296-0.711-0.388c-0.127-0.093-0.189-0.224-0.191-0.396c-0.002-0.146,0.058-0.276,0.178-0.39
		c0.122-0.113,0.256-0.171,0.404-0.172C167.025,71.112,167.772,71.477,168.824,72.21"/>
	<path clip-path="url(#SVGID_2_)" fill="#EF6696" d="M178.245,73.71l-0.004-0.257c-0.236,0.306-0.485,0.562-0.749,0.769
		c-0.263,0.207-0.548,0.362-0.859,0.466c-0.312,0.103-0.669,0.154-1.069,0.157c-0.482,0.004-0.918-0.092-1.303-0.289
		s-0.685-0.471-0.896-0.821c-0.253-0.422-0.382-1.031-0.389-1.827l-0.033-3.963c-0.001-0.401,0.087-0.701,0.265-0.899
		c0.18-0.2,0.418-0.302,0.716-0.304c0.303-0.003,0.547,0.095,0.735,0.295c0.186,0.199,0.281,0.496,0.285,0.892l0.026,3.2
		c0.003,0.465,0.045,0.854,0.127,1.168s0.221,0.561,0.427,0.737c0.203,0.176,0.479,0.263,0.827,0.261
		c0.336-0.003,0.652-0.106,0.949-0.309c0.297-0.203,0.512-0.466,0.644-0.79c0.111-0.284,0.164-0.903,0.155-1.861l-0.02-2.432
		c-0.003-0.396,0.088-0.695,0.272-0.896c0.183-0.202,0.425-0.304,0.723-0.307c0.297-0.002,0.536,0.096,0.719,0.29
		c0.183,0.198,0.275,0.497,0.278,0.897l0.047,5.795c0.004,0.38-0.081,0.666-0.252,0.858c-0.173,0.191-0.396,0.288-0.669,0.291
		c-0.273,0.002-0.501-0.096-0.679-0.291C178.337,74.342,178.247,74.067,178.245,73.71"/>
	<path clip-path="url(#SVGID_2_)" fill="#EF6696" d="M187.071,71.192l-3.911,0.032c0.009,0.452,0.104,0.854,0.286,1.198
		c0.181,0.346,0.42,0.604,0.716,0.777c0.298,0.174,0.625,0.259,0.98,0.257c0.238-0.003,0.458-0.032,0.654-0.09
		c0.197-0.057,0.39-0.148,0.573-0.268c0.185-0.122,0.354-0.251,0.51-0.39c0.155-0.138,0.357-0.325,0.603-0.561
		c0.103-0.09,0.249-0.135,0.44-0.136c0.204-0.002,0.371,0.052,0.498,0.164c0.129,0.11,0.193,0.27,0.195,0.475
		c0,0.181-0.068,0.392-0.207,0.635c-0.142,0.244-0.352,0.478-0.638,0.701c-0.282,0.226-0.641,0.412-1.07,0.562
		c-0.431,0.149-0.929,0.228-1.489,0.232c-1.285,0.009-2.284-0.349-3.004-1.075c-0.721-0.728-1.085-1.719-1.095-2.973
		c-0.004-0.592,0.078-1.141,0.25-1.648c0.171-0.507,0.425-0.941,0.76-1.307c0.334-0.363,0.747-0.644,1.238-0.84
		c0.49-0.197,1.037-0.297,1.638-0.303c0.782-0.007,1.453,0.153,2.015,0.479c0.562,0.324,0.986,0.747,1.267,1.267
		c0.283,0.521,0.427,1.052,0.432,1.594c0.004,0.504-0.138,0.831-0.425,0.982C188,71.109,187.596,71.188,187.071,71.192
		 M183.152,70.088l3.627-0.029c-0.056-0.685-0.244-1.193-0.566-1.53c-0.322-0.335-0.745-0.504-1.27-0.498
		c-0.496,0.003-0.905,0.179-1.221,0.525C183.404,68.903,183.215,69.413,183.152,70.088"/>
	<path clip-path="url(#SVGID_2_)" fill="#EF6696" d="M191.796,71.843l0.016,1.669c0.003,0.406-0.091,0.711-0.278,0.915
		c-0.19,0.204-0.431,0.309-0.725,0.311c-0.287,0.002-0.524-0.098-0.712-0.303c-0.187-0.204-0.282-0.505-0.286-0.906l-0.045-5.567
		c-0.007-0.897,0.313-1.351,0.965-1.355c0.33-0.002,0.57,0.101,0.719,0.31c0.148,0.21,0.231,0.519,0.249,0.93
		c0.235-0.413,0.479-0.726,0.728-0.937c0.251-0.213,0.585-0.321,1.007-0.324c0.42-0.005,0.829,0.099,1.224,0.306
		c0.399,0.206,0.6,0.483,0.602,0.829c0.003,0.244-0.08,0.446-0.246,0.606c-0.169,0.161-0.35,0.241-0.545,0.243
		c-0.073,0-0.251-0.044-0.533-0.132c-0.281-0.088-0.529-0.131-0.745-0.128c-0.292,0.003-0.531,0.08-0.716,0.236
		c-0.185,0.153-0.325,0.383-0.425,0.687c-0.101,0.305-0.169,0.665-0.205,1.082C191.808,70.731,191.792,71.242,191.796,71.843"/>
	<path clip-path="url(#SVGID_2_)" fill="#EF6696" d="M201.359,71.077l-3.913,0.031c0.009,0.454,0.103,0.854,0.285,1.199
		c0.18,0.347,0.42,0.604,0.716,0.778c0.298,0.173,0.625,0.257,0.98,0.255c0.24-0.002,0.458-0.03,0.656-0.09
		c0.197-0.058,0.389-0.146,0.573-0.267c0.183-0.122,0.354-0.253,0.51-0.39c0.155-0.139,0.355-0.325,0.603-0.563
		c0.102-0.087,0.248-0.132,0.438-0.134c0.205-0.002,0.373,0.053,0.5,0.165s0.193,0.27,0.194,0.474
		c0.002,0.181-0.067,0.393-0.209,0.637c-0.139,0.243-0.35,0.477-0.634,0.699c-0.283,0.227-0.641,0.413-1.072,0.562
		s-0.927,0.229-1.487,0.232c-1.286,0.011-2.286-0.349-3.005-1.075c-0.72-0.727-1.085-1.718-1.096-2.973
		c-0.005-0.59,0.08-1.141,0.251-1.647c0.172-0.506,0.425-0.941,0.759-1.307c0.335-0.362,0.747-0.644,1.24-0.84
		c0.489-0.197,1.036-0.298,1.637-0.303c0.782-0.007,1.452,0.153,2.015,0.478c0.562,0.325,0.983,0.749,1.266,1.269
		c0.284,0.52,0.427,1.052,0.431,1.593c0.005,0.503-0.136,0.83-0.422,0.981C202.285,70.994,201.881,71.072,201.359,71.077
		 M197.439,69.973l3.623-0.029c-0.054-0.683-0.241-1.194-0.563-1.531c-0.322-0.335-0.745-0.502-1.27-0.497
		c-0.498,0.004-0.905,0.18-1.223,0.525C197.69,68.787,197.5,69.298,197.439,69.973 M199.438,63.663l0.989-0.008
		c0.249-0.003,0.374,0.034,0.374,0.107c0,0.039-0.136,0.199-0.407,0.479c-0.271,0.282-0.544,0.55-0.82,0.806
		c-0.277,0.257-0.469,0.412-0.575,0.466c-0.276,0.144-0.574,0.218-0.893,0.22c-0.209,0.002-0.315-0.058-0.315-0.18
		c0-0.083,0.061-0.228,0.187-0.435l0.323-0.617c0.188-0.358,0.353-0.587,0.493-0.686C198.937,63.717,199.149,63.665,199.438,63.663"
		/>
	<path clip-path="url(#SVGID_2_)" fill="#EF6696" d="M204.166,66.674l0.22-0.004l-0.009-1.2c-0.004-0.323,0.003-0.574,0.019-0.759
		c0.016-0.183,0.062-0.34,0.14-0.474c0.076-0.138,0.188-0.25,0.334-0.335c0.146-0.087,0.309-0.132,0.489-0.133
		c0.255-0.002,0.484,0.092,0.691,0.281c0.138,0.126,0.227,0.279,0.265,0.462c0.037,0.183,0.058,0.443,0.062,0.779l0.01,1.364
		l0.733-0.007c0.282-0.003,0.5,0.063,0.649,0.195c0.149,0.134,0.227,0.305,0.229,0.516c0.002,0.268-0.104,0.458-0.315,0.567
		c-0.211,0.108-0.516,0.164-0.909,0.168l-0.374,0.001l0.027,3.678c0.004,0.313,0.016,0.554,0.04,0.723
		c0.023,0.167,0.084,0.305,0.18,0.408c0.096,0.104,0.251,0.156,0.465,0.155c0.118-0.003,0.277-0.023,0.478-0.067
		c0.198-0.043,0.356-0.064,0.468-0.065c0.16-0.001,0.307,0.06,0.438,0.189c0.131,0.129,0.196,0.286,0.198,0.479
		c0.004,0.322-0.171,0.57-0.522,0.744c-0.35,0.174-0.854,0.265-1.515,0.269c-0.623,0.006-1.099-0.096-1.423-0.303
		c-0.323-0.207-0.538-0.498-0.641-0.867c-0.103-0.371-0.156-0.864-0.162-1.485l-0.031-3.839l-0.263,0.002
		c-0.289,0.004-0.509-0.064-0.662-0.199c-0.153-0.136-0.229-0.309-0.229-0.518c-0.004-0.211,0.075-0.384,0.233-0.519
		C203.633,66.743,203.863,66.676,204.166,66.674"/>
	<path clip-path="url(#SVGID_2_)" fill="#EF6696" d="M213.877,73.423c-0.48,0.38-0.945,0.666-1.396,0.855
		c-0.449,0.192-0.956,0.29-1.517,0.297c-0.514,0.003-0.965-0.095-1.354-0.294c-0.389-0.199-0.691-0.472-0.904-0.817
		c-0.212-0.344-0.321-0.719-0.323-1.125c-0.006-0.548,0.163-1.015,0.508-1.404c0.344-0.389,0.819-0.651,1.423-0.786
		c0.126-0.031,0.44-0.101,0.944-0.207c0.501-0.106,0.932-0.204,1.29-0.292s0.745-0.196,1.165-0.32
		c-0.028-0.527-0.138-0.914-0.327-1.159c-0.19-0.245-0.58-0.365-1.172-0.36c-0.509,0.004-0.889,0.078-1.145,0.222
		s-0.474,0.357-0.654,0.642c-0.182,0.286-0.309,0.473-0.384,0.563c-0.074,0.093-0.236,0.138-0.485,0.14
		c-0.227,0.002-0.42-0.067-0.585-0.211c-0.164-0.143-0.247-0.326-0.251-0.551c-0.002-0.352,0.12-0.694,0.367-1.029
		c0.246-0.333,0.633-0.611,1.156-0.829c0.527-0.219,1.183-0.331,1.97-0.338c0.879-0.007,1.57,0.091,2.075,0.294
		c0.504,0.204,0.862,0.53,1.073,0.977c0.21,0.448,0.32,1.042,0.327,1.785c0.002,0.47,0.004,0.867,0.005,1.193
		c0,0.328-0.001,0.692-0.003,1.092c0.003,0.377,0.069,0.769,0.196,1.175c0.129,0.406,0.191,0.669,0.193,0.785
		c0.002,0.205-0.094,0.395-0.284,0.563c-0.191,0.17-0.409,0.255-0.654,0.259c-0.204,0.002-0.407-0.095-0.609-0.286
		C214.319,74.064,214.105,73.787,213.877,73.423 M213.723,70.529c-0.293,0.109-0.72,0.228-1.276,0.352
		c-0.56,0.123-0.944,0.216-1.158,0.273c-0.216,0.057-0.42,0.169-0.613,0.335c-0.195,0.164-0.289,0.395-0.287,0.687
		c0.002,0.304,0.12,0.56,0.35,0.77c0.231,0.211,0.533,0.314,0.904,0.312c0.396-0.004,0.759-0.095,1.092-0.271
		c0.332-0.176,0.578-0.401,0.731-0.676c0.179-0.304,0.265-0.803,0.259-1.496L213.723,70.529z"/>
	<path clip-path="url(#SVGID_2_)" fill="#EF6696" d="M219.108,71.621l0.014,1.67c0.003,0.406-0.089,0.711-0.278,0.915
		c-0.188,0.205-0.431,0.308-0.723,0.311c-0.289,0.003-0.526-0.099-0.713-0.303c-0.188-0.204-0.283-0.506-0.285-0.906l-0.045-5.567
		c-0.009-0.897,0.313-1.351,0.963-1.355c0.33-0.002,0.572,0.1,0.721,0.31c0.147,0.209,0.231,0.519,0.247,0.929
		c0.237-0.413,0.48-0.725,0.729-0.937c0.251-0.212,0.585-0.32,1.007-0.324c0.418-0.002,0.827,0.1,1.224,0.306
		c0.397,0.207,0.6,0.483,0.6,0.831c0.003,0.244-0.079,0.445-0.246,0.605c-0.169,0.161-0.35,0.241-0.545,0.242
		c-0.071,0.002-0.251-0.043-0.533-0.131c-0.28-0.088-0.527-0.131-0.743-0.129c-0.292,0.003-0.531,0.081-0.718,0.236
		c-0.183,0.155-0.325,0.385-0.425,0.688c-0.101,0.304-0.169,0.664-0.203,1.083C219.118,70.511,219.104,71.021,219.108,71.621"/>
	<path clip-path="url(#SVGID_2_)" fill="#EF6696" d="M230,70.354c0.005,0.598-0.084,1.146-0.265,1.651
		c-0.182,0.505-0.447,0.938-0.796,1.303c-0.349,0.365-0.767,0.645-1.254,0.842s-1.034,0.297-1.646,0.303
		c-0.605,0.005-1.149-0.088-1.635-0.279c-0.486-0.191-0.907-0.468-1.265-0.83c-0.356-0.358-0.628-0.787-0.816-1.282
		c-0.187-0.494-0.282-1.042-0.285-1.644c-0.006-0.604,0.081-1.159,0.263-1.663c0.181-0.505,0.444-0.938,0.789-1.297
		c0.343-0.358,0.761-0.637,1.253-0.833c0.491-0.197,1.036-0.298,1.63-0.304c0.606-0.005,1.156,0.09,1.651,0.28
		c0.494,0.191,0.919,0.467,1.274,0.824c0.355,0.359,0.625,0.786,0.812,1.283C229.898,69.204,229.995,69.754,230,70.354
		 M227.992,70.369c-0.005-0.814-0.189-1.448-0.554-1.899c-0.362-0.45-0.848-0.674-1.452-0.669c-0.391,0.004-0.733,0.107-1.029,0.312
		s-0.524,0.506-0.683,0.902c-0.158,0.397-0.235,0.859-0.229,1.386c0.003,0.524,0.087,0.979,0.247,1.37
		c0.164,0.389,0.394,0.685,0.689,0.89c0.298,0.205,0.646,0.307,1.047,0.304c0.605-0.004,1.086-0.236,1.441-0.697
		C227.825,71.81,227.999,71.177,227.992,70.369"/>
</g>
</svg>
